<svg xmlns="http://www.w3.org/2000/svg" viewBox="0 0 48 48" fill="none" role="img" aria-hidden="true">
  <defs>
    <linearGradient id="livechat-bg" x1="6" y1="4" x2="42" y2="44" gradientUnits="userSpaceOnUse">
      <stop stop-color="#1E2740"/><stop offset="1" stop-color="#0E1424"/>
    </linearGradient>
    <linearGradient id="livechat-gold" x1="10" y1="8" x2="38" y2="40" gradientUnits="userSpaceOnUse">
      <stop stop-color="#FFE082"/><stop offset="0.5" stop-color="#FFB300"/><stop offset="1" stop-color="#F57C00"/>
    </linearGradient>
  </defs>
  <rect x="2" y="2" width="44" height="44" rx="11" fill="url(#livechat-bg)"/>
  <rect x="2" y="2" width="44" height="44" rx="11" stroke="#FFB300" stroke-opacity="0.25" stroke-width="1"/>
  <path d="M12 14a3 3 0 0 1 3-3h18a3 3 0 0 1 3 3v10a3 3 0 0 1-3 3h-11l-6 5v-5h-1a3 3 0 0 1-3-3V14z" fill="url(#livechat-gold)"/>
  <path d="M17 19h8M17 23h12" stroke="#0E1424" stroke-width="2" stroke-linecap="round" opacity="0.4"/>
  <circle cx="33" cy="13" r="3" fill="#2E7D32"/>
</svg>
